<svg width="88" height="41" viewBox="0 0 88 41" fill="none" xmlns="http://www.w3.org/2000/svg">
<path d="M75.7022 40.252C74.5488 40.252 73.4914 39.84 72.5302 39.0162C71.8436 38.412 71.3905 37.6705 71.1708 36.7916C70.9236 35.9128 70.8 35.0615 70.8 34.2376C70.8 33.8806 70.9099 33.6197 71.1296 33.4549C71.3493 33.2901 71.5827 33.2077 71.8299 33.2077C72.1045 33.2077 72.3517 33.2901 72.5714 33.4549C72.7911 33.6197 72.901 33.8806 72.901 34.2376C72.901 34.7594 72.9696 35.3361 73.1069 35.9678C73.2443 36.5994 73.5052 37.08 73.8896 37.4096C74.4664 37.9039 75.0706 38.1511 75.7022 38.1511C76.1691 38.1511 76.6085 38.0138 77.0204 37.7391C77.4598 37.4645 77.8031 37.0663 78.0503 36.5445C78.3799 35.8579 78.627 34.9104 78.7918 33.702C78.9566 32.4937 79.0664 31.1754 79.1214 29.7474C79.1763 28.3193 79.2038 26.9324 79.2038 25.5867C79.2038 24.5706 79.19 23.6094 79.1626 22.7031C79.1626 21.7968 79.1626 21.0416 79.1626 20.4374C79.1626 19.2839 79.1488 18.1305 79.1214 16.977C79.1214 15.7961 79.1076 14.6289 79.0802 13.4755H77.0204C76.6634 13.4755 76.4025 13.3656 76.2377 13.1459C76.073 12.8988 75.9906 12.6516 75.9906 12.4044C75.9906 12.1572 76.073 11.9238 76.2377 11.7041C76.4025 11.4569 76.6634 11.3334 77.0204 11.3334H79.0802C79.0802 10.3172 79.1076 9.16377 79.1626 7.873C79.2175 6.55477 79.4235 5.42879 79.7805 4.49504C80.165 3.5613 80.7417 2.87472 81.5107 2.43531C82.3071 1.96844 83.131 1.735 83.9823 1.735C84.9985 1.735 85.9048 2.05083 86.7012 2.68248C87.4976 3.31413 87.8958 4.24787 87.8958 5.48371C87.8958 5.81327 87.8134 6.04671 87.6487 6.18402C87.5113 6.32134 87.3328 6.38999 87.1131 6.38999C86.866 6.38999 86.6188 6.30761 86.3716 6.14283C86.1245 5.97805 85.9597 5.79954 85.8773 5.6073C85.8224 5.41506 85.7674 5.23655 85.7125 5.07177C85.685 4.90699 85.6301 4.74221 85.5477 4.57743C85.4379 4.33026 85.2456 4.15175 84.971 4.0419C84.6964 3.93205 84.408 3.87712 84.1059 3.87712C83.6665 3.87712 83.2134 4.00071 82.7465 4.24787C82.3071 4.46758 81.9775 4.81087 81.7578 5.27774C81.5381 5.77207 81.3871 6.47238 81.3047 7.37866C81.2498 8.28495 81.2223 9.13631 81.2223 9.93274V11.3334H84.3943C84.7513 11.3334 85.0122 11.4432 85.177 11.6629C85.3418 11.8826 85.4241 12.1298 85.4241 12.4044C85.4241 12.679 85.3418 12.9262 85.177 13.1459C85.0122 13.3656 84.7513 13.4755 84.3943 13.4755H81.2223C81.2498 14.6289 81.2635 15.7961 81.2635 16.977C81.2909 18.1305 81.3047 19.2839 81.3047 20.4374C81.3047 21.1789 81.3047 22.0302 81.3047 22.9914C81.3321 23.9252 81.3459 24.9139 81.3459 25.9575C81.3459 27.3306 81.3047 28.7312 81.2223 30.1593C81.1674 31.5874 81.0438 32.9331 80.8515 34.1964C80.6593 35.4597 80.3572 36.5307 79.9453 37.4096C79.5058 38.3433 78.9017 39.0436 78.1327 39.5105C77.3912 40.0048 76.581 40.252 75.7022 40.252Z" fill="#222222"/>
<path d="M57.8122 31.1892C56.5763 31.1892 55.5465 30.9283 54.7226 30.4065C53.8987 29.8572 53.2258 29.1569 52.704 28.3056C52.2097 27.4267 51.8527 26.4793 51.633 25.4631C51.4133 24.4195 51.3034 23.4034 51.3034 22.4147C51.3034 20.4648 51.784 18.5562 52.7452 16.6887C53.7064 14.8212 54.9972 13.3382 56.6175 12.2396C58.0181 11.3059 59.5835 10.839 61.3137 10.839C62.3298 10.839 63.2773 11.0313 64.1561 11.4157C65.0624 11.8002 65.7902 12.4044 66.3395 13.2283C66.9162 14.0247 67.2045 15.0683 67.2045 16.3591C67.2045 16.8809 67.1359 17.7872 66.9986 19.0779C66.8613 20.3413 66.7926 21.6595 66.7926 23.0326C66.7926 24.0762 66.8613 25.0649 66.9986 25.9987C67.1633 26.9049 67.438 27.6464 67.8225 28.2232C68.2344 28.7999 68.8111 29.0883 69.5526 29.0883C69.9097 29.0883 70.1706 29.1981 70.3353 29.4178C70.5001 29.6375 70.5825 29.8847 70.5825 30.1593C70.5825 30.4065 70.5001 30.6399 70.3353 30.8596C70.1706 31.0793 69.9097 31.1892 69.5526 31.1892C68.4816 31.1892 67.6028 30.942 66.9162 30.4477C66.2296 29.9259 65.7078 29.2668 65.3508 28.4703C64.9938 27.6464 64.7603 26.7951 64.6505 25.9163C64.2111 26.7676 63.6618 27.6052 63.0027 28.4291C62.3436 29.2256 61.5746 29.8847 60.6958 30.4065C59.8444 30.9283 58.8832 31.1892 57.8122 31.1892ZM57.8122 29.0883C58.7459 29.0883 59.5561 28.8136 60.2426 28.2644C60.9567 27.6876 61.5746 26.9461 62.0964 26.0398C62.6457 25.1336 63.0988 24.1586 63.4558 23.115C63.8403 22.0714 64.1424 21.069 64.3621 20.1078C64.6093 19.1191 64.8015 18.2815 64.9388 17.5949C65.0212 17.1281 65.0624 16.7024 65.0624 16.3179C65.0624 15.9609 65.0212 15.6176 64.9388 15.288C64.8564 14.9585 64.7054 14.6427 64.4857 14.3406C64.1287 13.8737 63.6618 13.5304 63.0851 13.3107C62.5358 13.091 61.9454 12.9811 61.3137 12.9811C60.7095 12.9811 60.0916 13.0773 59.4599 13.2695C58.8558 13.4617 58.3202 13.7089 57.8534 14.011C56.5351 14.9173 55.4641 16.1394 54.6402 17.6773C53.8437 19.2153 53.4455 20.7944 53.4455 22.4147C53.4455 23.4309 53.5691 24.4607 53.8163 25.5043C54.0634 26.5205 54.5029 27.3718 55.1345 28.0584C55.7936 28.745 56.6862 29.0883 57.8122 29.0883Z" fill="#222222"/>
<path d="M39.1787 9.02646C38.6569 9.02646 38.2175 8.83421 37.8605 8.44973C37.5034 8.06525 37.3249 7.61211 37.3249 7.09031C37.3249 6.56851 37.5034 6.11537 37.8605 5.73088C38.2175 5.3464 38.6569 5.15416 39.1787 5.15416C39.673 5.15416 40.0987 5.3464 40.4557 5.73088C40.8127 6.11537 40.9913 6.56851 40.9913 7.09031C40.9913 7.61211 40.8127 8.06525 40.4557 8.44973C40.0987 8.83421 39.673 9.02646 39.1787 9.02646ZM41.156 31.6011C40.4145 31.6011 39.7142 31.2853 39.0551 30.6536C38.4509 30.0495 38.039 29.2668 37.8193 28.3056C37.5996 27.3443 37.4897 26.3007 37.4897 25.1748C37.4897 24.0762 37.5584 22.9502 37.6957 21.7968C37.833 20.6433 37.9566 19.5723 38.0664 18.5836C38.2037 17.5675 38.2724 16.7299 38.2724 16.0707C38.2724 15.2468 38.1488 14.7113 37.9017 14.4641C37.1876 14.1346 36.8306 13.6952 36.8306 13.1459C36.8306 12.8713 36.9267 12.6516 37.119 12.4868C37.3387 12.322 37.5858 12.2396 37.8605 12.2396C38.2449 12.2396 38.5882 12.3495 38.8903 12.5692C39.1924 12.7889 39.4396 13.0361 39.6318 13.3107C39.9339 13.6952 40.1262 14.1621 40.2086 14.7113C40.3184 15.2606 40.3733 15.851 40.3733 16.4827C40.3733 17.2517 40.3321 18.0893 40.2498 18.9956C40.1674 19.8744 40.0712 20.7532 39.9614 21.632C39.879 22.401 39.7966 23.1425 39.7142 23.8565C39.6593 24.5431 39.6318 25.2022 39.6318 25.8339C39.6318 26.5754 39.7005 27.2345 39.8378 27.8112C39.9751 28.3879 40.2086 28.8273 40.5381 29.1294C40.7304 29.3217 40.9638 29.4178 41.2384 29.4178C41.7328 29.4178 42.1996 29.1569 42.639 28.6351C43.1059 28.1133 43.4355 27.6739 43.6277 27.3169C43.7376 27.1246 43.8337 26.9324 43.9161 26.7402C43.9985 26.5204 44.0946 26.3145 44.2044 26.1222C44.3967 25.6828 44.7125 25.4631 45.1519 25.4631C45.4265 25.4631 45.6737 25.5592 45.8934 25.7515C46.1406 25.9437 46.2642 26.1909 46.2642 26.493C46.2642 26.5754 46.2367 26.699 46.1818 26.8637C45.9895 27.4679 45.6325 28.1408 45.1107 28.8823C44.6164 29.6238 44.0259 30.2692 43.3394 30.8184C42.6528 31.3402 41.925 31.6011 41.156 31.6011Z" fill="#222222"/>
<path d="M9.05606 32.9194C8.53427 32.9194 8.17725 32.8095 7.985 32.5898C7.79276 32.3976 7.69664 32.1779 7.69664 31.9307C7.69664 31.6835 7.7653 31.4638 7.90261 31.2716C8.06739 31.0519 8.2871 30.9283 8.56173 30.9008C8.83636 30.9008 9.09726 30.9008 9.34443 30.9008C9.56413 30.736 9.75637 30.2966 9.92115 29.5826C10.0859 28.8411 10.2232 27.9348 10.3331 26.8637C10.443 25.7652 10.5253 24.598 10.5803 23.3622C10.6627 22.1264 10.7176 20.918 10.745 19.7371C10.8 18.5287 10.8412 17.4439 10.8686 16.4827C10.8961 15.494 10.9236 14.7388 10.951 14.217C10.9785 13.6128 11.0197 12.9125 11.0746 12.1161C11.1295 11.3196 11.2394 10.5232 11.4042 9.72677C11.5689 8.93034 11.8298 8.20256 12.1869 7.54345C12.5439 6.88434 13.0382 6.39 13.6699 6.06044C13.8072 6.00552 13.917 5.96432 13.9994 5.93686C14.1093 5.9094 14.2191 5.89567 14.329 5.89567C14.6311 5.89567 14.8782 5.99179 15.0705 6.18403C15.2627 6.34881 15.3588 6.54105 15.3588 6.76075C15.3588 7.06285 15.2353 7.28255 14.9881 7.41987C14.7959 7.55718 14.6448 7.68077 14.535 7.79062C14.4526 7.87301 14.3839 7.94167 14.329 7.99659C13.972 8.436 13.6836 9.12258 13.4639 10.0563C13.2717 10.9626 13.1343 11.965 13.0519 13.0635C12.9696 14.1346 12.9146 15.1507 12.8872 16.1119C12.8872 17.0731 12.8872 17.8147 12.8872 18.3364C13.1618 18.3639 13.4227 18.3914 13.6699 18.4188C13.917 18.4188 14.1779 18.4188 14.4526 18.4188C15.6884 18.4188 16.8968 18.2953 18.0777 18.0481C19.6431 17.746 21.03 17.2791 22.2384 16.6475C23.4467 15.9884 24.3805 15.0958 25.0396 13.9698C25.7262 12.8438 26.0283 11.4432 25.9459 9.76796C25.9184 8.58705 25.5477 7.54345 24.8336 6.63717C24.147 5.73089 23.282 4.96192 22.2384 4.33027C21.2222 3.69862 20.1924 3.23174 19.1488 2.92965C18.4622 2.70995 17.7069 2.54517 16.883 2.43531C16.0866 2.32546 15.249 2.27054 14.3702 2.27054C12.9146 2.27054 11.4454 2.44905 9.96235 2.80607C8.47934 3.16309 7.13365 3.72608 5.92527 4.49505C4.71689 5.23655 3.76942 6.22522 3.08284 7.46106C2.80821 7.9554 2.5885 8.49093 2.42373 9.06765C2.25895 9.64438 2.17656 10.2211 2.17656 10.7978C2.17656 11.5119 2.3688 12.171 2.75328 12.7752C3.16523 13.3794 3.68703 13.86 4.31868 14.217C4.97779 14.5465 5.66437 14.7113 6.37841 14.7113C6.81782 14.7113 7.11992 14.6839 7.28469 14.6289C7.47694 14.5465 7.66918 14.4092 7.86142 14.217C8.10859 13.9698 8.42441 13.8462 8.8089 13.8462C9.08353 13.8462 9.31696 13.9149 9.50921 14.0522C9.70145 14.1621 9.79757 14.3543 9.79757 14.6289C9.79757 14.8761 9.70145 15.1507 9.50921 15.4528C9.45428 15.5627 9.27577 15.7137 8.97368 15.906C8.69904 16.0707 8.5068 16.1806 8.39695 16.2355C7.71037 16.5651 6.96887 16.7299 6.17244 16.7299C5.1563 16.7299 4.18136 16.4827 3.24762 15.9884C2.31387 15.494 1.57237 14.8212 1.02311 13.9698C0.721014 13.4755 0.501309 12.9537 0.363993 12.4044C0.226678 11.8277 0.15802 11.251 0.15802 10.6742C0.15802 9.38348 0.432651 8.16137 0.981913 7.00792C1.75088 5.36013 2.87687 4.04191 4.35987 3.05324C5.84288 2.06456 7.47694 1.35052 9.26204 0.911112C11.0746 0.471704 12.8048 0.251999 14.4526 0.251999C16.6771 0.251999 18.627 0.554093 20.3022 1.15828C22.0049 1.73501 23.4193 2.5177 24.5453 3.50638C25.6712 4.46758 26.5226 5.56611 27.0993 6.80195C27.676 8.01032 27.9644 9.25989 27.9644 10.5507C27.9644 12.1984 27.4701 13.7776 26.4814 15.288C25.4927 16.7985 24.0097 18.0344 22.0324 18.9956C20.055 19.9568 17.5559 20.4374 14.535 20.4374C14.2603 20.4374 13.9582 20.4374 13.6287 20.4374C13.3266 20.4099 13.0245 20.3825 12.7224 20.355C12.6949 21.426 12.6675 22.4971 12.64 23.5682C12.6125 24.6118 12.5439 25.6554 12.434 26.699C12.3791 27.2482 12.283 27.8799 12.1457 28.5939C12.0358 29.308 11.8573 29.9945 11.6101 30.6536C11.363 31.3128 11.0334 31.8483 10.6215 32.2602C10.2095 32.6996 9.68772 32.9194 9.05606 32.9194Z" fill="#222222"/>
</svg>
