<svg width="89" height="29" viewBox="0 0 89 29" fill="none" xmlns="http://www.w3.org/2000/svg">
<path d="M74.5485 9.85978H77.504C77.504 8.2783 77.5818 6.99497 77.7374 6.00978C77.9188 4.99867 78.2559 4.05237 78.7485 3.17089C79.267 2.26348 79.9151 1.56348 80.6929 1.07089C81.4966 0.578298 82.5725 0.332001 83.9207 0.332001C85.1911 0.332001 86.2281 0.565334 87.0318 1.032C87.8614 1.49867 88.2762 2.17274 88.2762 3.05422C88.2762 3.62459 88.1207 4.05237 87.8096 4.33756C87.4985 4.59682 87.1225 4.72645 86.6818 4.72645C86.1892 4.72645 85.7874 4.58385 85.4763 4.29867C85.1651 3.98756 84.88 3.63756 84.6207 3.24867C84.3874 2.85978 84.1151 2.52274 83.804 2.23756C83.4929 1.92645 83.0911 1.77089 82.5985 1.77089C81.8725 1.77089 81.38 2.10793 81.1207 2.782C80.8614 3.43015 80.7318 4.57089 80.7318 6.20422V9.85978H85.4763V11.4931H80.7318V23.432C80.7318 24.4431 80.8355 25.195 81.0429 25.6876C81.2503 26.1801 81.6392 26.5172 82.2096 26.6987C82.78 26.8542 83.6096 26.932 84.6985 26.932V28.0598H74.2374V26.932C75.1966 26.932 75.8966 26.8542 76.3374 26.6987C76.804 26.5172 77.1151 26.1801 77.2707 25.6876C77.4263 25.195 77.504 24.4431 77.504 23.432V11.4931H74.5485V9.85978Z" fill="#222222"/>
<path d="M59.0525 25.6487H58.8969C57.9895 26.4524 57.121 27.1005 56.2914 27.5931C55.4618 28.0857 54.4247 28.332 53.1803 28.332C51.6766 28.332 50.5229 27.9172 49.7192 27.0876C48.9414 26.2579 48.5525 25.2209 48.5525 23.9764C48.5525 22.9394 48.7858 22.0709 49.2525 21.3709C49.7451 20.645 50.3803 20.0357 51.158 19.5431C51.9617 19.0505 52.8173 18.6357 53.7247 18.2987C54.658 17.9616 55.5655 17.6764 56.4469 17.4431C57.3284 17.2098 58.1062 16.9894 58.7803 16.782V15.0709C58.7803 13.3857 58.4821 12.1931 57.8858 11.4931C57.3155 10.7672 56.4469 10.4042 55.2803 10.4042C54.1655 10.4042 53.4525 10.6376 53.1414 11.1042C52.8303 11.5709 52.6747 12.3876 52.6747 13.5542C52.6747 14.7468 52.1043 15.3431 50.9636 15.3431C50.5747 15.3431 50.1988 15.2005 49.8358 14.9153C49.4988 14.6042 49.3303 14.1246 49.3303 13.4764C49.3303 12.7505 49.6025 12.0635 50.1469 11.4153C50.7173 10.7672 51.508 10.2357 52.5192 9.82089C53.5562 9.40608 54.7747 9.19867 56.1747 9.19867C58.3006 9.19867 59.8043 9.69126 60.6858 10.6764C61.5673 11.6616 62.008 13.1653 62.008 15.1876V24.0153C62.008 24.819 62.0988 25.3376 62.2803 25.5709C62.4617 25.8042 62.7599 25.9209 63.1747 25.9209C63.5377 25.9209 63.8618 25.8302 64.1469 25.6487C64.458 25.4672 64.7432 25.2339 65.0025 24.9487L65.5858 25.5709C64.9377 26.5042 64.3155 27.1913 63.7192 27.632C63.1488 28.0468 62.371 28.2542 61.3858 28.2542C60.5303 28.2542 59.9599 28.0339 59.6747 27.5931C59.3895 27.1524 59.1821 26.5042 59.0525 25.6487ZM58.7803 24.482V18.0653C57.6136 18.3505 56.5118 18.6876 55.4747 19.0764C54.4377 19.4653 53.5951 19.9709 52.9469 20.5931C52.2988 21.2153 51.9747 22.032 51.9747 23.0431C51.9747 24.0024 52.234 24.7672 52.7525 25.3376C53.271 25.9079 53.9451 26.1931 54.7747 26.1931C56.071 26.1931 57.4062 25.6227 58.7803 24.482Z" fill="#222222"/>
<path d="M38.202 26.9709V28.0598H29.452V26.9709C30.3334 26.9709 30.9557 26.8931 31.3186 26.7376C31.7075 26.5561 31.9409 26.2579 32.0186 25.8431C32.1223 25.4283 32.1742 24.8579 32.1742 24.132V13.282C32.1742 12.4524 32.0316 11.9468 31.7464 11.7653C31.4612 11.5579 31.0334 11.4542 30.4631 11.4542C30.2038 11.4542 29.9705 11.4672 29.7631 11.4931C29.5816 11.519 29.4909 11.532 29.4909 11.532V10.4042L34.3909 9.31533H35.402V24.132C35.402 24.8838 35.4538 25.4672 35.5575 25.882C35.6612 26.2968 35.9075 26.582 36.2964 26.7376C36.7112 26.8931 37.3464 26.9709 38.202 26.9709ZM33.8464 1.88755C34.5205 1.88755 35.052 2.10792 35.4409 2.54866C35.8557 2.96348 36.0631 3.46903 36.0631 4.06533C36.0631 4.66162 35.8557 5.18014 35.4409 5.62088C35.052 6.06163 34.5205 6.282 33.8464 6.282C33.1983 6.282 32.6668 6.06163 32.252 5.62088C31.8371 5.18014 31.6297 4.66162 31.6297 4.06533C31.6297 3.46903 31.8242 2.96348 32.2131 2.54866C32.6279 2.10792 33.1723 1.88755 33.8464 1.88755Z" fill="#222222"/>
<path d="M0.155555 2.50978H9.83889C11.0833 2.50978 12.2759 2.61348 13.4167 2.82089C14.5833 3.00237 15.6074 3.32645 16.4889 3.79311C17.3963 4.25978 18.1093 4.92089 18.6278 5.77645C19.1722 6.60608 19.4444 7.66904 19.4444 8.96534C19.4444 10.469 19.1593 11.7394 18.5889 12.7764C18.0185 13.7876 17.2407 14.6042 16.2556 15.2264C15.2963 15.8487 14.2074 16.2894 12.9889 16.5487C11.7704 16.8079 10.5259 16.9376 9.25556 16.9376C8.86667 16.9376 8.45185 16.9116 8.01111 16.8598C7.57037 16.8079 7.2463 16.7302 7.03889 16.6264V23.2764C7.03889 24.3394 7.14259 25.1302 7.35 25.6487C7.58333 26.1672 7.98519 26.5042 8.55556 26.6598C9.12593 26.8153 9.92963 26.8931 10.9667 26.8931V28.0598H0V26.8931C1.01111 26.8931 1.76296 26.8024 2.25556 26.6209C2.74815 26.4394 3.07222 26.0894 3.22778 25.5709C3.38333 25.0264 3.46111 24.2098 3.46111 23.1209V6.39867C3.46111 5.25793 3.21481 4.51904 2.72222 4.182C2.25556 3.84497 1.4 3.67645 0.155555 3.67645V2.50978ZM7.03889 4.182V15.1876C7.2463 15.2135 7.54444 15.2524 7.93333 15.3042C8.34815 15.3302 8.75 15.3431 9.13889 15.3431C11.2389 15.3431 12.8333 14.9413 13.9222 14.1376C15.037 13.3079 15.5944 11.7653 15.5944 9.50978C15.5944 7.74682 15.0759 6.39867 14.0389 5.46534C13.0278 4.50608 11.4722 4.02645 9.37222 4.02645C8.98333 4.02645 8.59445 4.03941 8.20556 4.06533C7.84259 4.09126 7.4537 4.13015 7.03889 4.182Z" fill="#222222"/>
</svg>
